# xmcd
#
# Track frame offsets: 
#        150
#        17511
#        34376
#        53238
#        71620
#        89894
#        110905
#        128154
#        146436
#        172680
#        196551
#
# Disc length: 2907 seconds
#
# Revision: 0
# Processed by: cddbd v1.5.2PL0 Copyright (c) Steve Scherf et al.
# Submitted via: ExactAudioCopy v0.99pb4
#
DISCID=960b590b
DTITLE=Adele - 21
DYEAR=2011
DGENRE=Pop
TTITLE0=Rolling In The Deep
TTITLE1=Rumour Has It
TTITLE2=Turning Tables
TTITLE3=Don't You Remember
TTITLE4=Set Fire To The Rain
TTITLE5=He Won't Go
TTITLE6=Take It All
TTITLE7=I'll Be Waiting
TTITLE8=One And Only
TTITLE9=Lovesong
TTITLE10=Someone Like You
EXTD=
EXTT0=
EXTT1=
EXTT2=
EXTT3=
EXTT4=
EXTT5=
EXTT6=
EXTT7=
EXTT8=
EXTT9=
EXTT10=
PLAYORDER=
